<?xml version="1.0" encoding="UTF-8"?>
<!DOCTYPE svg PUBLIC "-//W3C//DTD SVG 1.1//EN" "http://www.w3.org/Graphics/SVG/1.1/DTD/svg11.dtd">
<svg xmlns="http://www.w3.org/2000/svg" version="1.1" width="500px" height="500px" style="shape-rendering:geometricPrecision; text-rendering:geometricPrecision; image-rendering:optimizeQuality; fill-rule:evenodd; clip-rule:evenodd" xmlns:xlink="http://www.w3.org/1999/xlink">
<g><path style="opacity:0.839" fill="#a09e9a" d="M 155.5,190.5 C 153.833,190.5 152.167,190.5 150.5,190.5C 152.286,188.078 153.952,188.078 155.5,190.5 Z"/></g>
<g><path style="opacity:0.773" fill="#a8a6a2" d="M 164.5,190.5 C 162.379,190.325 160.379,190.659 158.5,191.5C 158.5,191.167 158.5,190.833 158.5,190.5C 158.811,189.522 159.478,188.855 160.5,188.5C 162.026,188.994 163.359,189.661 164.5,190.5 Z"/></g>
<g><path style="opacity:0.009" fill="#fefffe" d="M 158.5,190.5 C 158.5,190.833 158.5,191.167 158.5,191.5C 158.5,196.5 158.5,201.5 158.5,206.5C 157.833,206.167 157.167,205.833 156.5,205.5C 156.5,201.167 156.5,196.833 156.5,192.5C 157.167,191.833 157.833,191.167 158.5,190.5 Z"/></g>
<g><path style="opacity:0.745" fill="#8e8a87" d="M 195.5,192.5 C 195.167,192.5 194.833,192.5 194.5,192.5C 191.024,191.357 187.358,191.19 183.5,192C 184.056,192.383 184.389,192.883 184.5,193.5C 182.688,193.229 181.022,192.562 179.5,191.5C 179.709,190.914 180.043,190.414 180.5,190C 191.644,189.84 202.644,189.84 213.5,190C 214.321,195.147 213.988,200.314 212.5,205.5C 211.385,201.392 209.719,197.559 207.5,194C 203.582,192.844 199.582,192.344 195.5,192.5 Z"/></g>
<g><path style="opacity:0.753" fill="#96928f" d="M 259.5,190.5 C 256.345,190.99 253.345,191.656 250.5,192.5C 247.167,192.5 243.833,192.5 240.5,192.5C 237.024,191.357 233.358,191.19 229.5,192C 230.056,192.383 230.389,192.883 230.5,193.5C 228.688,193.229 227.022,192.562 225.5,191.5C 226,190.119 227,189.453 228.5,189.5C 238.753,189.892 249.086,190.226 259.5,190.5 Z"/></g>
<g><path style="opacity:0.755" fill="#9c9693" d="M 305.5,190.5 C 303.073,190.523 300.74,191.023 298.5,192C 299.416,192.278 300.082,192.778 300.5,193.5C 295.146,191.839 289.979,192.172 285,194.5C 284.333,200.5 284.333,206.5 285,212.5C 285.671,213.252 286.504,213.586 287.5,213.5C 287.833,213.5 288.167,213.5 288.5,213.5C 288.5,214.167 288.5,214.833 288.5,215.5C 287.167,215.5 285.833,215.5 284.5,215.5C 283.563,207.555 283.23,199.555 283.5,191.5C 280.615,191.194 277.948,191.527 275.5,192.5C 274.022,192.762 272.689,192.429 271.5,191.5C 271.833,190.5 272.5,189.833 273.5,189.5C 284.192,189.51 294.858,189.843 305.5,190.5 Z"/></g>
<g><path style="opacity:0.859" fill="#8f8a86" d="M 128.5,193.5 C 127.167,194.167 125.833,194.833 124.5,195.5C 117.802,190.254 111.135,190.254 104.5,195.5C 104.068,194.29 103.401,193.29 102.5,192.5C 105.851,190.107 109.684,189.107 114,189.5C 116.167,189.667 118.333,189.833 120.5,190C 123.071,191.454 125.738,192.62 128.5,193.5 Z"/></g>
<g><path style="opacity:0.99" fill="#655d59" d="M 305.5,190.5 C 306.335,193.994 306.335,197.66 305.5,201.5C 305.565,201.938 305.399,202.272 305,202.5C 304.722,201.584 304.222,200.918 303.5,200.5C 303.075,197.881 302.075,195.547 300.5,193.5C 300.082,192.778 299.416,192.278 298.5,192C 300.74,191.023 303.073,190.523 305.5,190.5 Z"/></g>
<g><path style="opacity:1" fill="#78726f" d="M 354.5,201.5 C 354.158,202.338 353.492,202.672 352.5,202.5C 352.585,199.253 351.585,196.419 349.5,194C 344.964,192.621 340.297,192.121 335.5,192.5C 331.833,191.167 328.167,191.167 324.5,192.5C 321.12,192.821 320.287,191.821 322,189.5C 332.975,190.363 343.809,190.53 354.5,190C 355.141,193.743 355.141,197.577 354.5,201.5 Z"/></g>
<g><path style="opacity:0.651" fill="#b0a7a3" d="M 148.5,191.5 C 148.027,192.906 147.027,193.573 145.5,193.5C 145.973,192.094 146.973,191.427 148.5,191.5 Z"/></g>
<g><path style="opacity:1" fill="#635a58" d="M 259.5,190.5 C 260.242,193.643 260.242,196.977 259.5,200.5C 259.167,202.167 258.833,203.833 258.5,205.5C 257.614,204.675 257.281,203.675 257.5,202.5C 258.838,196.282 256.505,192.949 250.5,192.5C 253.345,191.656 256.345,190.99 259.5,190.5 Z"/></g>
<g><path style="opacity:0.043" fill="#d8d6d5" d="M 335.5,192.5 C 335.167,193.5 334.5,194.167 333.5,194.5C 333.5,193.167 334.167,192.5 335.5,192.5 Z"/></g>
<g><path style="opacity:0.043" fill="#dddad8" d="M 130.5,200.5 C 130.665,197.482 130.498,194.482 130,191.5C 129.617,192.056 129.117,192.389 128.5,192.5C 128.062,192.565 127.728,192.399 127.5,192C 128.469,190.242 129.636,189.742 131,190.5C 131.808,194.027 131.641,197.36 130.5,200.5 Z"/></g>
<g><path style="opacity:0.678" fill="#b1a7a1" d="M 102.5,192.5 C 100.833,194.833 98.8333,196.833 96.5,198.5C 97.5,195.5 99.5,193.5 102.5,192.5 Z"/></g>
<g><path style="opacity:0.004" fill="#dcd8d3" d="M 104.5,195.5 C 104.573,197.027 103.906,198.027 102.5,198.5C 102.427,196.973 103.094,195.973 104.5,195.5 Z"/></g>
<g><path style="opacity:0.137" fill="#dbd6d3" d="M 194.5,192.5 C 194.833,192.5 195.167,192.5 195.5,192.5C 194.828,193.267 193.995,193.934 193,194.5C 192.5,200.825 192.334,207.158 192.5,213.5C 194.167,213.5 195.833,213.5 197.5,213.5C 195.735,214.461 193.735,214.795 191.5,214.5C 191.334,207.492 191.5,200.492 192,193.5C 192.671,192.748 193.504,192.414 194.5,192.5 Z"/></g>
<g><path style="opacity:0.922" fill="#8c807e" d="M 250.5,192.5 C 256.505,192.949 258.838,196.282 257.5,202.5C 257.129,197.749 254.796,194.415 250.5,192.5 Z"/></g>
<g><path style="opacity:1" fill="#4e4440" d="M 284.5,215.5 C 284.5,221.833 284.5,228.167 284.5,234.5C 284.414,235.496 284.748,236.329 285.5,237C 283.167,237.667 280.833,237.667 278.5,237C 277.663,235.989 277.33,234.822 277.5,233.5C 277.667,221.162 277.5,208.829 277,196.5C 276.59,195.099 276.09,193.766 275.5,192.5C 277.948,191.527 280.615,191.194 283.5,191.5C 283.23,199.555 283.563,207.555 284.5,215.5 Z"/></g>
<g><path style="opacity:0.365" fill="#b5afa9" d="M 333.5,194.5 C 333.209,200.923 333.542,207.256 334.5,213.5C 333.182,210.742 332.515,207.576 332.5,204C 332.502,200.648 332.835,197.482 333.5,194.5 Z"/></g>
<g><path style="opacity:1" fill="#4f4540" d="M 164.5,190.5 C 176.009,198.179 180.176,208.845 177,222.5C 175.054,230.111 170.554,235.611 163.5,239C 161.735,239.64 160.068,239.473 158.5,238.5C 158.5,230.833 158.5,223.167 158.5,215.5C 158.5,215.167 158.5,214.833 158.5,214.5C 158.5,212.5 158.5,210.5 158.5,208.5C 158.5,207.833 158.5,207.167 158.5,206.5C 158.5,201.5 158.5,196.5 158.5,191.5C 160.379,190.659 162.379,190.325 164.5,190.5 Z"/></g>
<g><path style="opacity:1" fill="#4b413d" d="M 150.5,190.5 C 152.167,190.5 153.833,190.5 155.5,190.5C 155.5,204.167 155.5,217.833 155.5,231.5C 155.5,233.833 155.5,236.167 155.5,238.5C 152.988,239.867 150.655,239.534 148.5,237.5C 148.027,236.094 147.027,235.427 145.5,235.5C 144.527,232.865 142.86,230.865 140.5,229.5C 137.883,224.336 136.55,219.003 136.5,213.5C 136.824,205.526 139.824,198.859 145.5,193.5C 147.027,193.573 148.027,192.906 148.5,191.5C 148.842,190.662 149.508,190.328 150.5,190.5 Z"/></g>
<g><path style="opacity:0.993" fill="#544b47" d="M 194.5,192.5 C 193.504,192.414 192.671,192.748 192,193.5C 191.5,200.492 191.334,207.492 191.5,214.5C 193.735,214.795 195.735,214.461 197.5,213.5C 199.062,213.267 200.395,212.6 201.5,211.5C 203.028,212.802 204.028,214.469 204.5,216.5C 204.5,218.5 204.5,220.5 204.5,222.5C 204.631,223.239 204.464,223.906 204,224.5C 203.722,223.584 203.222,222.918 202.5,222.5C 202.067,219.809 200.733,217.809 198.5,216.5C 196.393,215.532 194.059,215.198 191.5,215.5C 191.5,221.833 191.5,228.167 191.5,234.5C 191.577,235.75 192.244,236.583 193.5,237C 189.973,237.808 186.64,237.641 183.5,236.5C 184.482,222.245 184.816,207.912 184.5,193.5C 184.389,192.883 184.056,192.383 183.5,192C 187.358,191.19 191.024,191.357 194.5,192.5 Z"/></g>
<g><path style="opacity:0.122" fill="#dfd9d3" d="M 238.5,194.5 C 237.908,200.631 238.575,206.464 240.5,212C 239.833,212.333 239.167,212.667 238.5,213C 240.81,213.497 243.143,213.663 245.5,213.5C 245.158,214.338 244.492,214.672 243.5,214.5C 241.5,214.5 239.5,214.5 237.5,214.5C 237.176,207.646 237.509,200.979 238.5,194.5 Z"/></g>
<g><path style="opacity:1" fill="#4f4541" d="M 335.5,192.5 C 334.167,192.5 333.5,193.167 333.5,194.5C 332.835,197.482 332.502,200.648 332.5,204C 332.515,207.576 333.182,210.742 334.5,213.5C 340.117,213.542 343.117,210.875 343.5,205.5C 344.833,211.167 344.833,216.833 343.5,222.5C 342.562,217.092 339.229,214.759 333.5,215.5C 332.346,221.987 332.179,228.654 333,235.5C 333.671,236.252 334.504,236.586 335.5,236.5C 333.034,237.634 330.367,237.801 327.5,237C 326.663,235.989 326.33,234.822 326.5,233.5C 326.667,220.829 326.5,208.162 326,195.5C 325.487,194.473 324.987,193.473 324.5,192.5C 328.167,191.167 331.833,191.167 335.5,192.5 Z"/></g>
<g><path style="opacity:0.878" fill="#625a57" d="M 130.5,200.5 C 130.799,202.604 130.466,204.604 129.5,206.5C 127.984,202.783 126.318,199.116 124.5,195.5C 125.833,194.833 127.167,194.167 128.5,193.5C 128.5,193.167 128.5,192.833 128.5,192.5C 129.117,192.389 129.617,192.056 130,191.5C 130.498,194.482 130.665,197.482 130.5,200.5 Z"/></g>
<g><path style="opacity:1" fill="#968f89" d="M 101.5,200.5 C 99.9938,206.733 99.3272,213.066 99.5,219.5C 98.2262,215.144 98.2262,210.644 99.5,206C 99.2409,204.739 98.5742,203.739 97.5,203C 99.133,202.52 100.466,201.687 101.5,200.5 Z"/></g>
<g><path style="opacity:0.227" fill="#c6c2c0" d="M 303.5,200.5 C 304.222,200.918 304.722,201.584 305,202.5C 305.399,202.272 305.565,201.938 305.5,201.5C 306.043,201.56 306.376,201.893 306.5,202.5C 305.675,203.386 304.675,203.719 303.5,203.5C 303.5,202.5 303.5,201.5 303.5,200.5 Z"/></g>
<g><path style="opacity:0.008" fill="#e7e6e5" d="M 354.5,201.5 C 355.885,202.302 355.718,202.969 354,203.5C 353.235,203.43 352.735,203.097 352.5,202.5C 353.492,202.672 354.158,202.338 354.5,201.5 Z"/></g>
<g><path style="opacity:0.997" fill="#4d4440" d="M 102.5,192.5 C 103.401,193.29 104.068,194.29 104.5,195.5C 103.094,195.973 102.427,196.973 102.5,198.5C 102.672,199.492 102.338,200.158 101.5,200.5C 100.466,201.687 99.133,202.52 97.5,203C 98.5742,203.739 99.2409,204.739 99.5,206C 98.2262,210.644 98.2262,215.144 99.5,219.5C 100.341,221.379 100.675,223.379 100.5,225.5C 100.5,226.5 100.5,227.5 100.5,228.5C 98.8762,228.64 97.7096,227.973 97,226.5C 96.6667,226.833 96.3333,227.167 96,227.5C 95.9252,225.065 95.0919,224.398 93.5,225.5C 92.5489,224.081 92.2155,222.415 92.5,220.5C 92.3921,215.13 92.7255,209.797 93.5,204.5C 93.9925,202.181 94.9925,200.181 96.5,198.5C 98.8333,196.833 100.833,194.833 102.5,192.5 Z"/></g>
<g><path style="opacity:0.251" fill="#c4bdba" d="M 155.5,190.5 C 156.338,190.842 156.672,191.508 156.5,192.5C 156.5,196.833 156.5,201.167 156.5,205.5C 156.338,207.527 156.505,209.527 157,211.5C 157.232,210.263 157.732,209.263 158.5,208.5C 158.5,210.5 158.5,212.5 158.5,214.5C 157.883,214.389 157.383,214.056 157,213.5C 156.51,214.793 156.343,216.127 156.5,217.5C 156.5,218.167 156.5,218.833 156.5,219.5C 156.5,220.833 156.5,222.167 156.5,223.5C 156.5,225.833 156.5,228.167 156.5,230.5C 156.5,230.833 156.5,231.167 156.5,231.5C 156.167,231.5 155.833,231.5 155.5,231.5C 155.5,217.833 155.5,204.167 155.5,190.5 Z"/></g>
<g><path style="opacity:0.459" fill="#908a86" d="M 343.5,205.5 C 343.56,204.957 343.893,204.624 344.5,204.5C 345.833,211.167 345.833,217.833 344.5,224.5C 343.702,224.043 343.369,223.376 343.5,222.5C 344.833,216.833 344.833,211.167 343.5,205.5 Z"/></g>
<g><path style="opacity:0.655" fill="#87817e" d="M 204.5,216.5 C 204.028,214.469 203.028,212.802 201.5,211.5C 201.39,208.941 202.056,206.608 203.5,204.5C 204.276,207.986 204.942,211.486 205.5,215C 205.43,215.765 205.097,216.265 204.5,216.5 Z"/></g>
<g><path style="opacity:0.004" fill="#fefffe" d="M 193.5,211.5 C 194.833,212.167 194.833,212.167 193.5,211.5 Z"/></g>
<g><path style="opacity:0.008" fill="#f5f3f3" d="M 291.5,212.5 C 290.791,213.404 289.791,213.737 288.5,213.5C 288.167,213.5 287.833,213.5 287.5,213.5C 288.292,211.255 289.625,210.922 291.5,212.5 Z"/></g>
<g><path style="opacity:0.998" fill="#655e5b" d="M 250.5,222.5 C 250.5,223.833 249.833,224.5 248.5,224.5C 248.474,221.038 247.141,218.371 244.5,216.5C 244.5,215.833 244.167,215.5 243.5,215.5C 243.5,215.167 243.5,214.833 243.5,214.5C 244.492,214.672 245.158,214.338 245.5,213.5C 246.85,210.467 248.35,207.467 250,204.5C 250.499,210.491 250.666,216.491 250.5,222.5 Z"/></g>
<g><path style="opacity:0.999" fill="#6a6360" d="M 292.5,216.5 C 291.432,215.566 290.099,215.232 288.5,215.5C 288.5,214.833 288.5,214.167 288.5,213.5C 289.791,213.737 290.791,213.404 291.5,212.5C 292.71,209.725 294.044,207.058 295.5,204.5C 296.833,211.167 296.833,217.833 295.5,224.5C 293.893,222.083 292.893,219.416 292.5,216.5 Z"/></g>
<g><path style="opacity:0.333" fill="#c5bfba" d="M 93.5,204.5 C 92.7255,209.797 92.3921,215.13 92.5,220.5C 91.8373,218.527 91.5039,216.361 91.5,214C 91.3275,210.523 91.9942,207.356 93.5,204.5 Z"/></g>
<g><path style="opacity:0.005" fill="#f8f7f6" d="M 158.5,215.5 C 158.5,223.167 158.5,230.833 158.5,238.5C 157.5,237.167 156.5,237.167 155.5,238.5C 155.5,236.167 155.5,233.833 155.5,231.5C 155.833,231.5 156.167,231.5 156.5,231.5C 157.833,231.167 157.833,230.833 156.5,230.5C 156.5,228.167 156.5,225.833 156.5,223.5C 157.833,222.167 157.833,220.833 156.5,219.5C 156.5,218.833 156.5,218.167 156.5,217.5C 157.167,216.833 157.833,216.167 158.5,215.5 Z"/></g>
<g><path style="opacity:0.005" fill="#f6f0f0" d="M 288.5,215.5 C 290.099,215.232 291.432,215.566 292.5,216.5C 291.167,217.167 289.833,217.833 288.5,218.5C 288.5,217.5 288.5,216.5 288.5,215.5 Z"/></g>
<g><path style="opacity:0.004" fill="#fefffe" d="M 285.5,216.5 C 286.833,217.167 286.833,217.167 285.5,216.5 Z"/></g>
<g><path style="opacity:0.989" fill="#554c47" d="M 240.5,192.5 C 239.833,193.167 239.167,193.833 238.5,194.5C 237.509,200.979 237.176,207.646 237.5,214.5C 239.5,214.5 241.5,214.5 243.5,214.5C 243.5,214.833 243.5,215.167 243.5,215.5C 241.5,215.5 239.5,215.5 237.5,215.5C 237.177,222.022 237.51,228.355 238.5,234.5C 238.5,234.833 238.5,235.167 238.5,235.5C 238.611,236.117 238.944,236.617 239.5,237C 238,237.167 236.5,237.333 235,237.5C 233.014,237.431 231.514,236.765 230.5,235.5C 230.5,221.5 230.5,207.5 230.5,193.5C 230.389,192.883 230.056,192.383 229.5,192C 233.358,191.19 237.024,191.357 240.5,192.5 Z"/></g>
<g><path style="opacity:0.133" fill="#d9d4cf" d="M 243.5,215.5 C 244.167,215.5 244.5,215.833 244.5,216.5C 242.473,216.338 240.473,216.505 238.5,217C 239.167,217.333 239.833,217.667 240.5,218C 238.58,223.197 237.913,228.697 238.5,234.5C 237.51,228.355 237.177,222.022 237.5,215.5C 239.5,215.5 241.5,215.5 243.5,215.5 Z"/></g>
<g><path style="opacity:0.392" fill="#c4c1be" d="M 49.5,224.5 C 47.4482,225.053 47.1148,226.053 48.5,227.5C 51.8333,227.5 55.1667,227.5 58.5,227.5C 54.8183,228.261 50.985,228.928 47,229.5C 46.5,229.167 46,228.833 45.5,228.5C 46.4386,224.235 46.7719,219.902 46.5,215.5C 48.6547,215.372 50.6547,215.872 52.5,217C 51.4366,218.188 50.1033,218.688 48.5,218.5C 48.3253,220.621 48.6586,222.621 49.5,224.5 Z"/></g>
<g><path style="opacity:0.298" fill="#cbc9c4" d="M 57.5,221.5 C 56.7494,220.427 55.7494,220.26 54.5,221C 55.3366,222.011 55.67,223.178 55.5,224.5C 54.5,224.5 53.5,224.5 52.5,224.5C 52.9175,223.778 53.5842,223.278 54.5,223C 51.7939,220.577 52.4606,219.41 56.5,219.5C 57.8333,219.833 59.1667,220.167 60.5,220.5C 59.675,221.386 58.675,221.719 57.5,221.5 Z"/></g>
<g><path style="opacity:0.007" fill="#fefffe" d="M 64.5,219.5 C 64.5,221.167 64.5,222.833 64.5,224.5C 63.5,224.5 62.5,224.5 61.5,224.5C 61.3601,222.876 62.0267,221.71 63.5,221C 61.0684,219.913 61.4017,219.413 64.5,219.5 Z"/></g>
<g><path style="opacity:0.129" fill="#dad5d2" d="M 198.5,216.5 C 196.473,216.338 194.473,216.505 192.5,217C 197.794,217.818 197.794,218.318 192.5,218.5C 192.5,223.833 192.5,229.167 192.5,234.5C 192.167,234.5 191.833,234.5 191.5,234.5C 191.5,228.167 191.5,221.833 191.5,215.5C 194.059,215.198 196.393,215.532 198.5,216.5 Z"/></g>
<g><path style="opacity:0.01" fill="#f8f8f7" d="M 57.5,221.5 C 57.369,222.239 57.5357,222.906 58,223.5C 60.1785,222.16 60.6785,222.493 59.5,224.5C 58.5,224.5 57.5,224.5 56.5,224.5C 56.2627,223.209 56.596,222.209 57.5,221.5 Z"/></g>
<g><path style="opacity:0.176" fill="#ccc9c5" d="M 202.5,222.5 C 203.222,222.918 203.722,223.584 204,224.5C 204.464,223.906 204.631,223.239 204.5,222.5C 205.404,223.209 205.737,224.209 205.5,225.5C 204.5,225.5 203.5,225.5 202.5,225.5C 202.5,224.5 202.5,223.5 202.5,222.5 Z"/></g>
<g><path style="opacity:0.169" fill="#dddddb" d="M 250.5,222.5 C 251.404,223.209 251.737,224.209 251.5,225.5C 250.209,225.737 249.209,225.404 248.5,224.5C 249.833,224.5 250.5,223.833 250.5,222.5 Z"/></g>
<g><path style="opacity:0.965" fill="#534b48" d="M 57.5,221.5 C 56.596,222.209 56.2627,223.209 56.5,224.5C 58.9686,225.317 61.6353,225.817 64.5,226C 58.9842,226.173 53.6509,226.673 48.5,227.5C 47.1148,226.053 47.4482,225.053 49.5,224.5C 50.5,224.5 51.5,224.5 52.5,224.5C 53.5,224.5 54.5,224.5 55.5,224.5C 55.67,223.178 55.3366,222.011 54.5,221C 55.7494,220.26 56.7494,220.427 57.5,221.5 Z"/></g>
<g><path style="opacity:0.727" fill="#888380" d="M 62.5,227.5 C 61.8333,227.5 61.1667,227.5 60.5,227.5C 59.8333,227.5 59.1667,227.5 58.5,227.5C 55.1667,227.5 51.8333,227.5 48.5,227.5C 53.6509,226.673 58.9842,226.173 64.5,226C 61.6353,225.817 58.9686,225.317 56.5,224.5C 57.5,224.5 58.5,224.5 59.5,224.5C 60.1667,224.5 60.8333,224.5 61.5,224.5C 62.5,224.5 63.5,224.5 64.5,224.5C 64.5,222.833 64.5,221.167 64.5,219.5C 63.0262,218.325 61.3596,217.325 59.5,216.5C 61.6948,215.231 63.8615,215.231 66,216.5C 65.5391,220.475 65.5391,224.475 66,228.5C 65.6667,228.833 65.3333,229.167 65,229.5C 64.2917,228.619 63.4584,227.953 62.5,227.5 Z"/></g>
<g><path style="opacity:0.005" fill="#fefffe" d="M 60.5,227.5 C 61.1667,227.5 61.8333,227.5 62.5,227.5C 62.2144,229.933 61.5477,229.933 60.5,227.5 Z"/></g>
<g><path style="opacity:0.263" fill="#b7aeab" d="M 306.5,238.5 C 306.666,234.154 306.499,229.821 306,225.5C 305.722,226.416 305.222,227.082 304.5,227.5C 304.5,226.5 304.5,225.5 304.5,224.5C 305.5,224.5 306.5,224.5 307.5,224.5C 307.819,229.363 307.486,234.03 306.5,238.5 Z"/></g>
<g><path style="opacity:0.361" fill="#aea9a5" d="M 333.5,215.5 C 333.334,221.842 333.5,228.175 334,234.5C 334.717,235.044 335.217,235.711 335.5,236.5C 334.504,236.586 333.671,236.252 333,235.5C 332.179,228.654 332.346,221.987 333.5,215.5 Z"/></g>
<g><path style="opacity:0.254" fill="#afaba7" d="M 355.5,238.5 C 355.666,234.154 355.499,229.821 355,225.5C 354.79,227.058 354.29,228.391 353.5,229.5C 353.5,227.833 353.5,226.167 353.5,224.5C 354.5,224.5 355.5,224.5 356.5,224.5C 356.819,229.363 356.486,234.03 355.5,238.5 Z"/></g>
<g><path style="opacity:0.902" fill="#b0aca6" d="M 140.5,229.5 C 142.86,230.865 144.527,232.865 145.5,235.5C 143.11,234.109 141.443,232.109 140.5,229.5 Z"/></g>
<g><path style="opacity:0.996" fill="#6c6562" d="M 128.5,235.5 C 127.737,234.732 126.737,234.232 125.5,234C 126.252,233.329 126.586,232.496 126.5,231.5C 129.161,218.395 130.827,218.895 131.5,233C 131.596,235.375 131.096,237.541 130,239.5C 128.812,238.437 128.312,237.103 128.5,235.5 Z"/></g>
<g><path style="opacity:0.396" fill="#b9b3b0" d="M 102.5,230.5 C 103.906,230.973 104.573,231.973 104.5,233.5C 103.094,233.027 102.427,232.027 102.5,230.5 Z"/></g>
<g><path style="opacity:0.831" fill="#95908c" d="M 126.5,231.5 C 126.586,232.496 126.252,233.329 125.5,234C 126.737,234.232 127.737,234.732 128.5,235.5C 124.683,237.41 120.683,238.743 116.5,239.5C 114.833,238.833 113.167,238.167 111.5,237.5C 117.667,238.226 122.667,236.226 126.5,231.5 Z"/></g>
<g><path style="opacity:0.294" fill="#c3bfb8" d="M 145.5,235.5 C 147.027,235.427 148.027,236.094 148.5,237.5C 146.973,237.573 145.973,236.906 145.5,235.5 Z"/></g>
<g><path style="opacity:0.763" fill="#6b6460" d="M 191.5,234.5 C 191.833,234.5 192.167,234.5 192.5,234.5C 194.255,235.792 196.255,236.792 198.5,237.5C 192.167,238.833 185.833,238.833 179.5,237.5C 180.689,236.571 182.022,236.238 183.5,236.5C 186.64,237.641 189.973,237.808 193.5,237C 192.244,236.583 191.577,235.75 191.5,234.5 Z"/></g>
<g><path style="opacity:0.745" fill="#726d68" d="M 230.5,235.5 C 231.514,236.765 233.014,237.431 235,237.5C 236.5,237.333 238,237.167 239.5,237C 238.944,236.617 238.611,236.117 238.5,235.5C 240.435,236.15 242.435,236.483 244.5,236.5C 244.719,237.675 244.386,238.675 243.5,239.5C 237.522,238.872 231.522,238.206 225.5,237.5C 227.139,236.678 228.805,236.011 230.5,235.5 Z"/></g>
<g><path style="opacity:0.827" fill="#6d6562" d="M 306.5,238.5 C 306.083,239.124 305.416,239.457 304.5,239.5C 293.511,238.876 282.511,238.21 271.5,237.5C 274.201,237.025 276.201,235.692 277.5,233.5C 277.33,234.822 277.663,235.989 278.5,237C 280.833,237.667 283.167,237.667 285.5,237C 284.748,236.329 284.414,235.496 284.5,234.5C 288.876,236.534 293.543,237.034 298.5,236C 302.34,234.492 304.34,231.658 304.5,227.5C 305.222,227.082 305.722,226.416 306,225.5C 306.499,229.821 306.666,234.154 306.5,238.5 Z"/></g>
<g><path style="opacity:0.743" fill="#67615d" d="M 355.5,238.5 C 355.265,239.097 354.765,239.43 354,239.5C 342.851,238.865 331.685,238.198 320.5,237.5C 323.201,237.025 325.201,235.692 326.5,233.5C 326.33,234.822 326.663,235.989 327.5,237C 330.367,237.801 333.034,237.634 335.5,236.5C 339.514,236.666 343.514,236.499 347.5,236C 350.726,234.942 352.726,232.775 353.5,229.5C 354.29,228.391 354.79,227.058 355,225.5C 355.499,229.821 355.666,234.154 355.5,238.5 Z"/></g>
<g><path style="opacity:0.82" fill="#665d5a" d="M 100.5,225.5 C 101.537,226.93 102.204,228.597 102.5,230.5C 102.427,232.027 103.094,233.027 104.5,233.5C 106.67,235.086 109.004,236.42 111.5,237.5C 113.167,238.167 114.833,238.833 116.5,239.5C 104.856,241.185 97.1893,236.518 93.5,225.5C 95.0919,224.398 95.9252,225.065 96,227.5C 96.3333,227.167 96.6667,226.833 97,226.5C 97.7096,227.973 98.8762,228.64 100.5,228.5C 100.5,227.5 100.5,226.5 100.5,225.5 Z"/></g>
<g><path style="opacity:0.375" fill="#b8b3af" d="M 64.5,251.5 C 58.9861,252.167 53.3195,252.833 47.5,253.5C 53.3195,254.167 58.9861,254.833 64.5,255.5C 61.8127,255.336 59.146,255.503 56.5,256C 56.5773,258.111 56.9106,260.111 57.5,262C 59.8333,262.667 62.1667,262.667 64.5,262C 63.1669,260.16 63.3335,259.66 65,260.5C 65.8821,264.088 65.7155,266.088 64.5,266.5C 64.5,266.167 64.5,265.833 64.5,265.5C 61.9292,263.769 58.9292,262.769 55.5,262.5C 55.5,260.167 55.5,257.833 55.5,255.5C 52.5342,255.11 49.8676,255.777 47.5,257.5C 46.1667,254.833 46.1667,252.167 47.5,249.5C 52.9383,251.388 58.6049,252.054 64.5,251.5 Z"/></g>
<g><path style="opacity:0.918" fill="#645d5a" d="M 64.5,255.5 C 58.9861,254.833 53.3195,254.167 47.5,253.5C 53.3195,252.833 58.9861,252.167 64.5,251.5C 64.369,250.761 64.5357,250.094 65,249.5C 67.8877,255.57 66.0544,258.07 59.5,257C 61.3817,256.802 63.0484,256.302 64.5,255.5 Z"/></g>
<g><path style="opacity:0.944" fill="#514c48" d="M 48.5,262.5 C 50.8333,262.5 53.1667,262.5 55.5,262.5C 58.9292,262.769 61.9292,263.769 64.5,265.5C 58.8333,265.5 53.1667,265.5 47.5,265.5C 47.2627,264.209 47.596,263.209 48.5,262.5 Z"/></g>
<g><path style="opacity:0.004" fill="#f4f2f1" d="M 159.5,266.5 C 158.5,266.5 157.5,266.5 156.5,266.5C 156.5,267.167 156.167,267.5 155.5,267.5C 154.833,267.167 154.167,266.833 153.5,266.5C 155.295,264.084 157.295,264.084 159.5,266.5 Z"/></g>
<g><path style="opacity:0.024" fill="#e7e4d2" d="M 48.5,262.5 C 47.596,263.209 47.2627,264.209 47.5,265.5C 53.1667,265.5 58.8333,265.5 64.5,265.5C 64.5,265.833 64.5,266.167 64.5,266.5C 59.1563,266.334 53.8229,266.501 48.5,267C 48,267.5 47.5,268 47,268.5C 46.1816,265.773 46.3483,263.106 47.5,260.5C 48.2975,260.957 48.6309,261.624 48.5,262.5 Z"/></g>
<g><path style="opacity:0.82" fill="#86807c" d="M 117.5,269.5 C 115.585,269.216 113.919,269.549 112.5,270.5C 109.721,270.279 107.054,270.612 104.5,271.5C 103.306,270.223 101.64,269.556 99.5,269.5C 97.6307,269.507 95.964,269.84 94.5,270.5C 93.0222,270.762 91.6888,270.429 90.5,269.5C 90.8333,268.5 91.5,267.833 92.5,267.5C 100.962,268.139 109.296,268.806 117.5,269.5 Z"/></g>
<g><path style="opacity:0.71" fill="#827a77" d="M 309.5,272.5 C 309.167,272.5 308.833,272.5 308.5,272.5C 308.5,271.5 308.5,270.5 308.5,269.5C 306.381,269.468 305.048,270.468 304.5,272.5C 300.946,270.516 297.28,270.183 293.5,271.5C 292.082,269.692 290.082,269.025 287.5,269.5C 287.829,283.677 287.496,297.677 286.5,311.5C 286.5,297.833 286.5,284.167 286.5,270.5C 283.351,270.211 280.351,270.711 277.5,272C 275.161,275.497 273.494,279.331 272.5,283.5C 271.714,279.181 271.047,274.847 270.5,270.5C 270.608,269.558 270.941,268.725 271.5,268C 283.702,268.763 295.868,268.596 308,267.5C 309.269,268.905 309.769,270.571 309.5,272.5 Z"/></g>
<g><path style="opacity:0.706" fill="#817c78" d="M 353.5,280.5 C 354.482,277.038 354.815,273.371 354.5,269.5C 352.62,269.229 351.287,269.896 350.5,271.5C 345.153,270.225 339.82,270.225 334.5,271.5C 334.611,270.883 334.944,270.383 335.5,270C 332.167,269.333 328.833,269.333 325.5,270C 326.252,270.671 326.586,271.504 326.5,272.5C 324.986,271.32 323.319,270.32 321.5,269.5C 332.842,268.745 344.176,268.078 355.5,267.5C 355.827,272.214 355.493,276.88 354.5,281.5C 353.893,281.376 353.56,281.043 353.5,280.5 Z"/></g>
<g><path style="opacity:0.71" fill="#77706d" d="M 396.5,269.5 C 394.585,269.216 392.919,269.549 391.5,270.5C 389.143,270.337 386.81,270.503 384.5,271C 383.915,272.302 383.249,273.469 382.5,274.5C 382.703,272.61 382.037,271.11 380.5,270C 377.961,269.204 375.628,269.371 373.5,270.5C 372.325,270.719 371.325,270.386 370.5,269.5C 379.325,268.179 387.991,268.179 396.5,269.5 Z"/></g>
<g><path style="opacity:0.694" fill="#87817d" d="M 431.5,271.5 C 431.167,271.5 430.833,271.5 430.5,271.5C 430.167,271.5 429.833,271.5 429.5,271.5C 428.054,270.06 426.221,269.393 424,269.5C 422.615,269.514 421.449,269.848 420.5,270.5C 418.027,270.053 417.86,269.053 420,267.5C 424.54,268.029 429.04,268.029 433.5,267.5C 434.386,268.325 434.719,269.325 434.5,270.5C 433.209,270.263 432.209,270.596 431.5,271.5 Z"/></g>
<g><path style="opacity:0.999" fill="#4e4440" d="M 152.5,266.5 C 152.5,282.833 152.5,299.167 152.5,315.5C 149.747,316.659 147.081,316.159 144.5,314C 132.016,302.056 130.183,288.556 139,273.5C 141.893,269.434 145.726,266.768 150.5,265.5C 151.416,265.543 152.083,265.876 152.5,266.5 Z"/></g>
<g><path style="opacity:0.005" fill="#fefffe" d="M 155.5,269.5 C 155.5,271.167 155.5,272.833 155.5,274.5C 154.167,274.833 154.167,275.167 155.5,275.5C 155.5,275.833 155.5,276.167 155.5,276.5C 154.167,277.167 154.167,277.833 155.5,278.5C 155.5,279.167 155.5,279.833 155.5,280.5C 154.167,280.833 154.167,281.167 155.5,281.5C 155.5,282.167 155.5,282.833 155.5,283.5C 154.833,283.833 154.167,284.167 153.5,284.5C 153.5,280.167 153.5,275.833 153.5,271.5C 154.167,270.833 154.833,270.167 155.5,269.5 Z"/></g>
<g><path style="opacity:0.745" fill="#8f8a86" d="M 253.5,270.5 C 252.5,271.167 251.5,271.833 250.5,272.5C 246.342,269.129 242.008,268.796 237.5,271.5C 237.631,270.624 237.298,269.957 236.5,269.5C 235.583,270.127 234.583,270.461 233.5,270.5C 235.911,268.14 238.911,267.14 242.5,267.5C 246.419,267.63 250.086,268.63 253.5,270.5 Z"/></g>
<g><path style="opacity:0.953" fill="#6f6965" d="M 454.5,275.5 C 453.022,274.552 452.022,273.219 451.5,271.5C 449.411,271.143 447.411,270.477 445.5,269.5C 449.713,268.805 453.879,268.139 458,267.5C 459.23,268.275 459.563,269.275 459,270.5C 457.264,272.063 455.764,273.73 454.5,275.5 Z"/></g>
<g><path style="opacity:0.467" fill="#beb9b3" d="M 152.5,266.5 C 152.833,266.5 153.167,266.5 153.5,266.5C 153.5,268.167 153.5,269.833 153.5,271.5C 153.5,275.833 153.5,280.167 153.5,284.5C 153.457,291.934 153.79,299.434 154.5,307C 154.259,310.062 153.592,312.895 152.5,315.5C 152.5,299.167 152.5,282.833 152.5,266.5 Z"/></g>
<g><path style="opacity:0.604" fill="#bcbab7" d="M 114.5,271.5 C 116.5,271.5 117.5,272.5 117.5,274.5C 116.167,273.833 115.167,272.833 114.5,271.5 Z"/></g>
<g><path style="opacity:0.986" fill="#8f8785" d="M 118.5,269.5 C 121.362,270.247 123.362,271.914 124.5,274.5C 123.542,274.047 122.708,273.381 122,272.5C 121.667,272.833 121.333,273.167 121,273.5C 119.905,272.307 119.072,270.973 118.5,269.5 Z"/></g>
<g><path style="opacity:1" fill="#4d4440" d="M 293.5,271.5 C 293.92,284.465 293.92,297.465 293.5,310.5C 293.227,312.451 293.893,313.951 295.5,315C 291.833,315.667 288.167,315.667 284.5,315C 285.756,314.583 286.423,313.75 286.5,312.5C 286.5,312.167 286.5,311.833 286.5,311.5C 287.496,297.677 287.829,283.677 287.5,269.5C 290.082,269.025 292.082,269.692 293.5,271.5 Z"/></g>
<g><path style="opacity:1" fill="#635b58" d="M 308.5,272.5 C 308.813,276.042 308.479,279.375 307.5,282.5C 306.716,279.205 305.716,275.871 304.5,272.5C 305.048,270.468 306.381,269.468 308.5,269.5C 308.5,270.5 308.5,271.5 308.5,272.5 Z"/></g>
<g><path style="opacity:0.247" fill="#d4cbc9" d="M 429.5,271.5 C 429.833,271.5 430.167,271.5 430.5,271.5C 430.833,272.833 431.167,272.833 431.5,271.5C 432.043,271.56 432.376,271.893 432.5,272.5C 431.757,273.182 431.091,273.849 430.5,274.5C 429.596,273.791 429.263,272.791 429.5,271.5 Z"/></g>
<g><path style="opacity:0.995" fill="#5f5653" d="M 214.5,313.5 C 212.35,312.185 211.016,310.185 210.5,307.5C 209.035,308.609 208.035,308.109 207.5,306C 207.833,305.667 208.167,305.333 208.5,305C 207.912,301.392 206.912,297.892 205.5,294.5C 201.897,297.036 201.563,300.036 204.5,303.5C 205.396,302.494 206.062,302.494 206.5,303.5C 205.388,304.265 204.721,305.265 204.5,306.5C 202.935,304.491 201.935,302.157 201.5,299.5C 198.854,298.836 196.021,298.502 193,298.5C 189.748,298.519 186.915,299.186 184.5,300.5C 184.5,300.833 184.5,301.167 184.5,301.5C 183.075,303.031 182.409,302.698 182.5,300.5C 182.935,297.843 183.935,295.509 185.5,293.5C 186.338,293.842 186.672,294.508 186.5,295.5C 185.957,295.56 185.624,295.893 185.5,296.5C 190.456,297.494 195.456,297.827 200.5,297.5C 200.768,295.901 200.434,294.568 199.5,293.5C 197.399,290.203 196.065,286.537 195.5,282.5C 195.443,281.391 195.11,280.391 194.5,279.5C 193.833,277.833 193.167,276.167 192.5,274.5C 193.217,272.063 194.217,269.73 195.5,267.5C 202.895,282.304 209.229,297.637 214.5,313.5 Z"/></g>
<g><path style="opacity:0.955" fill="#615956" d="M 255.5,282.5 C 253.374,279.582 251.708,276.249 250.5,272.5C 251.5,271.833 252.5,271.167 253.5,270.5C 254.222,270.082 254.722,269.416 255,268.5C 255.499,273.155 255.666,277.821 255.5,282.5 Z"/></g>
<g><path style="opacity:0.945" fill="#5c5551" d="M 353.5,280.5 C 352.817,277.484 351.817,274.484 350.5,271.5C 351.287,269.896 352.62,269.229 354.5,269.5C 354.815,273.371 354.482,277.038 353.5,280.5 Z"/></g>
<g><path style="opacity:0.998" fill="#564b49" d="M 117.5,269.5 C 117.833,269.5 118.167,269.5 118.5,269.5C 119.072,270.973 119.905,272.307 121,273.5C 121.333,273.167 121.667,272.833 122,272.5C 122.708,273.381 123.542,274.047 124.5,274.5C 125.222,274.918 125.722,275.584 126,276.5C 128.139,283.541 125.973,288.541 119.5,291.5C 115.107,291.543 114.774,291.043 118.5,290C 117.748,289.329 117.414,288.496 117.5,287.5C 117.328,286.508 117.662,285.842 118.5,285.5C 119.158,284.207 119.492,282.707 119.5,281C 119.664,278.456 118.997,276.29 117.5,274.5C 117.5,272.5 116.5,271.5 114.5,271.5C 113.508,271.672 112.842,271.338 112.5,270.5C 113.919,269.549 115.585,269.216 117.5,269.5 Z"/></g>
<g><path style="opacity:1" fill="#4e4440" d="M 156.5,266.5 C 157.5,266.5 158.5,266.5 159.5,266.5C 165.731,268.897 170.231,273.23 173,279.5C 176.025,288.119 175.525,296.452 171.5,304.5C 169.241,305.344 168.241,307.011 168.5,309.5C 165.426,314.136 161.26,316.136 156,315.5C 155.5,304.839 155.333,294.172 155.5,283.5C 155.5,282.833 155.5,282.167 155.5,281.5C 155.5,281.167 155.5,280.833 155.5,280.5C 155.5,279.833 155.5,279.167 155.5,278.5C 155.5,277.833 155.5,277.167 155.5,276.5C 155.5,276.167 155.5,275.833 155.5,275.5C 155.5,275.167 155.5,274.833 155.5,274.5C 155.5,272.833 155.5,271.167 155.5,269.5C 155.5,268.833 155.5,268.167 155.5,267.5C 156.167,267.5 156.5,267.167 156.5,266.5 Z"/></g>
<g><path style="opacity:0.106" fill="#dad5d0" d="M 255.5,282.5 C 255.666,277.821 255.499,273.155 255,268.5C 254.722,269.416 254.222,270.082 253.5,270.5C 253.5,269.5 253.5,268.5 253.5,267.5C 254.5,267.5 255.5,267.5 256.5,267.5C 256.821,272.695 256.487,277.695 255.5,282.5 Z"/></g>
<g><path style="opacity:0.38" fill="#b0aca7" d="M 308.5,272.5 C 308.833,272.5 309.167,272.5 309.5,272.5C 309.823,276.226 309.489,279.893 308.5,283.5C 307.893,283.376 307.56,283.043 307.5,282.5C 308.479,279.375 308.813,276.042 308.5,272.5 Z"/></g>
<g><path style="opacity:1" fill="#524944" d="M 396.5,269.5 C 398.553,269.402 400.22,270.069 401.5,271.5C 403.695,275.878 404.695,280.545 404.5,285.5C 402.703,286.73 400.703,287.396 398.5,287.5C 398.5,285.833 398.5,284.167 398.5,282.5C 398.671,276.817 396.338,272.817 391.5,270.5C 392.919,269.549 394.585,269.216 396.5,269.5 Z"/></g>
<g><path style="opacity:0.008" fill="#efeeed" d="M 194.5,279.5 C 195.11,280.391 195.443,281.391 195.5,282.5C 194.036,283.405 192.702,283.405 191.5,282.5C 191.328,281.508 191.662,280.842 192.5,280.5C 192.409,278.302 193.075,277.969 194.5,279.5 Z"/></g>
<g><path style="opacity:0.804" fill="#8e8782" d="M 401.5,271.5 C 406.29,275.499 407.29,280.165 404.5,285.5C 404.695,280.545 403.695,275.878 401.5,271.5 Z"/></g>
<g><path style="opacity:0.196" fill="#c4bcb6" d="M 117.5,274.5 C 118.997,276.29 119.664,278.456 119.5,281C 119.492,282.707 119.158,284.207 118.5,285.5C 118.577,281.785 118.244,278.119 117.5,274.5 Z"/></g>
<g><path style="opacity:0.004" fill="#fefffe" d="M 333.5,281.5 C 334.21,283.893 334.877,286.393 335.5,289C 334.906,289.464 334.239,289.631 333.5,289.5C 333.5,286.833 333.5,284.167 333.5,281.5 Z"/></g>
<g><path style="opacity:0.506" fill="#c1bdbb" d="M 235.5,280.5 C 237.167,281.5 238.5,282.833 239.5,284.5C 237.167,284.167 235.833,282.833 235.5,280.5 Z"/></g>
<g><path style="opacity:0.004" fill="#fefffe" d="M 382.5,284.5 C 384.238,286.119 384.738,288.119 384,290.5C 383.722,289.584 383.222,288.918 382.5,288.5C 382.5,287.167 382.5,285.833 382.5,284.5 Z"/></g>
<g><path style="opacity:0.863" fill="#a5a29e" d="M 239.5,284.5 C 241.23,285.026 242.564,286.026 243.5,287.5C 241.368,287.446 240.035,286.446 239.5,284.5 Z"/></g>
<g><path style="opacity:1" fill="#5c534f" d="M 429.5,271.5 C 429.263,272.791 429.596,273.791 430.5,274.5C 432.674,277.515 434.341,280.849 435.5,284.5C 435.427,286.027 436.094,287.027 437.5,287.5C 439.008,289.181 440.008,291.181 440.5,293.5C 441.032,296.46 441.699,296.793 442.5,294.5C 443.338,294.842 443.672,295.508 443.5,296.5C 443.179,302.026 443.512,307.36 444.5,312.5C 445.287,314.104 446.62,314.771 448.5,314.5C 448.719,315.675 448.386,316.675 447.5,317.5C 442.199,317.677 436.866,317.343 431.5,316.5C 432.167,315.833 432.833,315.167 433.5,314.5C 433.833,314.5 434.167,314.5 434.5,314.5C 436.048,314.179 436.715,313.179 436.5,311.5C 436.725,306.752 436.225,302.085 435,297.5C 430.154,288.473 425.321,279.473 420.5,270.5C 421.449,269.848 422.615,269.514 424,269.5C 426.221,269.393 428.054,270.06 429.5,271.5 Z"/></g>
<g><path style="opacity:0.22" fill="#c7c3bf" d="M 435.5,284.5 C 436.906,284.973 437.573,285.973 437.5,287.5C 436.094,287.027 435.427,286.027 435.5,284.5 Z"/></g>
<g><path style="opacity:0.925" fill="#84807c" d="M 192.5,274.5 C 193.167,276.167 193.833,277.833 194.5,279.5C 193.075,277.969 192.409,278.302 192.5,280.5C 191.662,280.842 191.328,281.508 191.5,282.5C 190.069,287.011 188.402,291.345 186.5,295.5C 186.672,294.508 186.338,293.842 185.5,293.5C 187.262,286.873 189.595,280.539 192.5,274.5 Z"/></g>
<g><path style="opacity:1" fill="#59514d" d="M 334.5,271.5 C 333.793,274.786 333.46,278.119 333.5,281.5C 333.5,284.167 333.5,286.833 333.5,289.5C 339.853,292.292 343.186,289.959 343.5,282.5C 344.5,282.5 345.5,282.5 346.5,282.5C 346.167,285.167 345.833,287.833 345.5,290.5C 345.665,294.182 345.499,297.848 345,301.5C 344.722,300.584 344.222,299.918 343.5,299.5C 342.217,294.275 339.051,292.608 334,294.5C 333.501,300.157 333.334,305.824 333.5,311.5C 333.67,312.822 333.337,313.989 332.5,315C 330.527,315.495 328.527,315.662 326.5,315.5C 326.5,314.5 326.5,313.5 326.5,312.5C 326.5,299.167 326.5,285.833 326.5,272.5C 326.586,271.504 326.252,270.671 325.5,270C 328.833,269.333 332.167,269.333 335.5,270C 334.944,270.383 334.611,270.883 334.5,271.5 Z"/></g>
<g><path style="opacity:0.851" fill="#8d8683" d="M 451.5,271.5 C 452.022,273.219 453.022,274.552 454.5,275.5C 451.072,282.692 447.405,289.692 443.5,296.5C 443.672,295.508 443.338,294.842 442.5,294.5C 445.049,288.401 447.882,282.401 451,276.5C 451.494,274.866 451.66,273.199 451.5,271.5 Z"/></g>
<g><path style="opacity:0.369" fill="#a5a29e" d="M 64.5,297.5 C 64.5,297.167 64.5,296.833 64.5,296.5C 62.0849,295.186 59.2515,294.519 56,294.5C 52.7485,294.519 49.9151,295.186 47.5,296.5C 47.2627,297.791 47.596,298.791 48.5,299.5C 53.8889,302.471 53.2222,303.805 46.5,303.5C 46.5,298.167 46.5,292.833 46.5,287.5C 48.604,287.201 50.604,287.534 52.5,288.5C 49.6582,289.004 48.3249,290.671 48.5,293.5C 53.8437,293.666 59.1771,293.499 64.5,293C 63.3044,292.346 63.3044,291.846 64.5,291.5C 66.6414,294.327 66.6414,296.993 64.5,299.5C 63.537,299.03 63.537,298.363 64.5,297.5 Z"/></g>
<g><path style="opacity:0.004" fill="#fefffe" d="M 50.5,291.5 C 51.2506,290.427 52.2506,290.26 53.5,291C 52.552,291.483 51.552,291.649 50.5,291.5 Z"/></g>
<g><path style="opacity:0.004" fill="#fefffe" d="M 50.5,291.5 C 49.8333,292.167 49.8333,292.167 50.5,291.5 Z"/></g>
<g><path style="opacity:0.937" fill="#7c7670" d="M 398.5,282.5 C 398.5,284.167 398.5,285.833 398.5,287.5C 400.703,287.396 402.703,286.73 404.5,285.5C 403.92,287.749 402.587,289.415 400.5,290.5C 399.29,290.932 398.29,291.599 397.5,292.5C 397.167,292.5 396.833,292.5 396.5,292.5C 394.207,293.301 394.54,293.968 397.5,294.5C 398.492,294.328 399.158,294.662 399.5,295.5C 398.5,295.5 397.5,295.5 396.5,295.5C 396.371,297.216 396.038,298.883 395.5,300.5C 394.623,298.272 393.29,296.272 391.5,294.5C 393.379,294.607 393.712,294.107 392.5,293C 388.975,292.821 385.641,292.321 382.5,291.5C 391.035,293.579 396.368,290.579 398.5,282.5 Z"/></g>
<g><path style="opacity:0.005" fill="#f4f2f1" d="M 400.5,290.5 C 400.598,293.248 399.598,293.914 397.5,292.5C 398.29,291.599 399.29,290.932 400.5,290.5 Z"/></g>
<g><path style="opacity:0.031" fill="#eddddc" d="M 117.5,292.5 C 117.833,293.167 118.167,293.833 118.5,294.5C 115.54,293.968 115.207,293.301 117.5,292.5 Z"/></g>
<g><path style="opacity:0.063" fill="#e1d8d6" d="M 396.5,292.5 C 396.833,293.167 397.167,293.833 397.5,294.5C 394.54,293.968 394.207,293.301 396.5,292.5 Z"/></g>
<g><path style="opacity:1" fill="#534a45" d="M 382.5,274.5 C 382.5,277.833 382.5,281.167 382.5,284.5C 382.5,285.833 382.5,287.167 382.5,288.5C 382.5,289.5 382.5,290.5 382.5,291.5C 385.641,292.321 388.975,292.821 392.5,293C 393.712,294.107 393.379,294.607 391.5,294.5C 388.713,293.523 385.713,293.19 382.5,293.5C 382.5,294.833 382.5,296.167 382.5,297.5C 382.392,302.87 382.725,308.203 383.5,313.5C 383.611,314.117 383.944,314.617 384.5,315C 381.167,315.667 377.833,315.667 374.5,315C 375.252,314.329 375.586,313.496 375.5,312.5C 375.667,299.163 375.5,285.829 375,272.5C 374.283,271.956 373.783,271.289 373.5,270.5C 375.628,269.371 377.961,269.204 380.5,270C 382.037,271.11 382.703,272.61 382.5,274.5 Z"/></g>
<g><path style="opacity:0.453" fill="#b6b4b0" d="M 391.5,294.5 C 388.813,294.336 386.146,294.503 383.5,295C 385.857,296.22 385.524,297.053 382.5,297.5C 382.5,296.167 382.5,294.833 382.5,293.5C 385.713,293.19 388.713,293.523 391.5,294.5 Z"/></g>
<g><path style="opacity:0.938" fill="#423d39" d="M 64.5,296.5 C 58.8333,296.5 53.1667,296.5 47.5,296.5C 49.9151,295.186 52.7485,294.519 56,294.5C 59.2515,294.519 62.0849,295.186 64.5,296.5 Z"/></g>
<g><path style="opacity:1" fill="#4d433f" d="M 94.5,270.5 C 95.964,269.84 97.6307,269.507 99.5,269.5C 101.64,269.556 103.306,270.223 104.5,271.5C 103.54,278.078 103.207,284.745 103.5,291.5C 106.689,292.166 110.023,292.833 113.5,293.5C 113.376,294.107 113.043,294.44 112.5,294.5C 109.5,294.5 106.5,294.5 103.5,294.5C 102.347,300.319 102.181,306.319 103,312.5C 103.383,313.056 103.883,313.389 104.5,313.5C 103.306,314.777 101.64,315.444 99.5,315.5C 97.6307,315.493 95.964,315.16 94.5,314.5C 95.1667,313.5 95.8333,312.5 96.5,311.5C 97.4957,298.01 97.829,284.344 97.5,270.5C 96.5,270.5 95.5,270.5 94.5,270.5 Z"/></g>
<g><path style="opacity:0.376" fill="#c7bfbd" d="M 440.5,293.5 C 441.167,293.833 441.833,294.167 442.5,294.5C 441.699,296.793 441.032,296.46 440.5,293.5 Z"/></g>
<g><path style="opacity:0.606" fill="#8d837e" d="M 103.5,294.5 C 103.249,300.892 103.582,307.225 104.5,313.5C 103.883,313.389 103.383,313.056 103,312.5C 102.181,306.319 102.347,300.319 103.5,294.5 Z"/></g>
<g><path style="opacity:0.984" fill="#7f7775" d="M 117.5,287.5 C 117.414,288.496 117.748,289.329 118.5,290C 114.774,291.043 115.107,291.543 119.5,291.5C 119.158,292.338 118.492,292.672 117.5,292.5C 115.207,293.301 115.54,293.968 118.5,294.5C 120.587,295.585 121.92,297.251 122.5,299.5C 121.167,299.5 119.833,299.5 118.5,299.5C 117.223,298.683 116.89,300.683 117.5,305.5C 116.426,301.631 114.759,297.964 112.5,294.5C 113.043,294.44 113.376,294.107 113.5,293.5C 110.023,292.833 106.689,292.166 103.5,291.5C 108.957,292.398 113.624,291.064 117.5,287.5 Z"/></g>
<g><path style="opacity:0.489" fill="#a39d99" d="M 199.5,293.5 C 200.434,294.568 200.768,295.901 200.5,297.5C 195.456,297.827 190.456,297.494 185.5,296.5C 185.624,295.893 185.957,295.56 186.5,295.5C 190.634,296.485 194.968,296.818 199.5,296.5C 199.5,295.5 199.5,294.5 199.5,293.5 Z"/></g>
<g><path style="opacity:0.118" fill="#e8e4e2" d="M 47.5,296.5 C 53.1667,296.5 58.8333,296.5 64.5,296.5C 64.5,296.833 64.5,297.167 64.5,297.5C 62.8194,298.146 61.1528,298.813 59.5,299.5C 57.2115,298.678 54.8782,298.011 52.5,297.5C 50.6672,297.585 49.3339,298.252 48.5,299.5C 47.596,298.791 47.2627,297.791 47.5,296.5 Z"/></g>
<g><path style="opacity:0.698" fill="#c2bdbb" d="M 245.5,297.5 C 248.167,298.167 249.833,299.833 250.5,302.5C 248.5,301.167 246.833,299.5 245.5,297.5 Z"/></g>
<g><path style="opacity:0.357" fill="#bbb7b2" d="M 399.5,295.5 C 400.906,295.973 401.573,296.973 401.5,298.5C 400.094,298.027 399.427,297.027 399.5,295.5 Z"/></g>
<g><path style="opacity:0.004" fill="#fefffe" d="M 50.5,299.5 C 51.9464,298.387 53.6131,298.22 55.5,299C 53.8659,299.494 52.1992,299.66 50.5,299.5 Z"/></g>
<g><path style="opacity:0.635" fill="#7b766f" d="M 94.5,270.5 C 95.5,270.5 96.5,270.5 97.5,270.5C 97.829,284.344 97.4957,298.01 96.5,311.5C 96.6666,298.496 96.4999,285.496 96,272.5C 95.2828,271.956 94.7828,271.289 94.5,270.5 Z"/></g>
<g><path style="opacity:0.012" fill="#fbfafa" d="M 201.5,299.5 C 195.894,299.286 190.227,299.62 184.5,300.5C 186.915,299.186 189.748,298.519 193,298.5C 196.021,298.502 198.854,298.836 201.5,299.5 Z"/></g>
<g><path style="opacity:0.463" fill="#a5a09d" d="M 255.5,296.5 C 256.906,296.973 257.573,297.973 257.5,299.5C 256.094,299.027 255.427,298.027 255.5,296.5 Z"/></g>
<g><path style="opacity:0.318" fill="#d3d1cc" d="M 345.5,290.5 C 346.483,294.298 346.817,298.298 346.5,302.5C 345.5,302.5 344.5,302.5 343.5,302.5C 343.5,301.5 343.5,300.5 343.5,299.5C 344.222,299.918 344.722,300.584 345,301.5C 345.499,297.848 345.665,294.182 345.5,290.5 Z"/></g>
<g><path style="opacity:0.96" fill="#5c5451" d="M 234.5,311.5 C 233.5,312.833 232.5,314.167 231.5,315.5C 230.883,315.611 230.383,315.944 230,316.5C 229.503,313.854 229.336,311.187 229.5,308.5C 229.335,305.482 229.502,302.482 230,299.5C 231.988,303.296 233.488,307.296 234.5,311.5 Z"/></g>
<g><path style="opacity:0.991" fill="#554b48" d="M 237.5,271.5 C 235.874,274.246 235.207,277.246 235.5,280.5C 235.833,282.833 237.167,284.167 239.5,284.5C 240.035,286.446 241.368,287.446 243.5,287.5C 248.224,289.529 252.224,292.529 255.5,296.5C 255.427,298.027 256.094,299.027 257.5,299.5C 258.641,302.64 258.808,305.973 258,309.5C 257.303,311.584 256.136,313.251 254.5,314.5C 254.082,313.778 253.416,313.278 252.5,313C 252.833,312.667 253.167,312.333 253.5,312C 252.877,309.393 252.21,306.893 251.5,304.5C 251.167,303.833 250.833,303.167 250.5,302.5C 249.833,299.833 248.167,298.167 245.5,297.5C 238.935,294.763 233.769,290.43 230,284.5C 229.333,281.167 229.333,277.833 230,274.5C 230.66,272.676 231.827,271.343 233.5,270.5C 234.583,270.461 235.583,270.127 236.5,269.5C 237.298,269.957 237.631,270.624 237.5,271.5 Z"/></g>
<g><path style="opacity:1" fill="#4f4641" d="M 399.5,295.5 C 399.427,297.027 400.094,298.027 401.5,298.5C 401.41,301.152 402.076,303.485 403.5,305.5C 404.434,306.568 404.768,307.901 404.5,309.5C 404.343,310.873 404.51,312.207 405,313.5C 406.627,314.532 407.793,315.866 408.5,317.5C 405.828,319.044 403.495,318.711 401.5,316.5C 400.047,315.175 400.381,314.342 402.5,314C 399.876,313.424 399.209,312.09 400.5,310C 399.304,308.636 398.304,307.136 397.5,305.5C 400.074,302.983 399.408,301.316 395.5,300.5C 396.038,298.883 396.371,297.216 396.5,295.5C 397.5,295.5 398.5,295.5 399.5,295.5 Z"/></g>
<g><path style="opacity:0.635" fill="#9e9792" d="M 401.5,298.5 C 402.924,300.515 403.59,302.848 403.5,305.5C 402.076,303.485 401.41,301.152 401.5,298.5 Z"/></g>
<g><path style="opacity:0.643" fill="#978d8a" d="M 122.5,299.5 C 123.924,301.515 124.59,303.848 124.5,306.5C 123.814,305.152 122.814,303.985 121.5,303C 122.337,301.989 122.67,300.822 122.5,299.5 Z"/></g>
<g><path style="opacity:0.965" fill="#918b85" d="M 171.5,304.5 C 171.25,306.674 170.25,308.341 168.5,309.5C 168.241,307.011 169.241,305.344 171.5,304.5 Z"/></g>
<g><path style="opacity:1" fill="#574d4a" d="M 122.5,299.5 C 122.67,300.822 122.337,301.989 121.5,303C 122.814,303.985 123.814,305.152 124.5,306.5C 124.259,308.898 124.926,310.898 126.5,312.5C 126.574,314.411 127.574,315.578 129.5,316C 128.944,316.383 128.611,316.883 128.5,317.5C 126.833,318.833 125.167,318.833 123.5,317.5C 123.027,316.094 122.027,315.427 120.5,315.5C 118.59,312.548 117.59,309.214 117.5,305.5C 116.89,300.683 117.223,298.683 118.5,299.5C 119.833,299.5 121.167,299.5 122.5,299.5 Z"/></g>
<g><path style="opacity:0.977" fill="#6d635f" d="M 395.5,300.5 C 399.408,301.316 400.074,302.983 397.5,305.5C 398.304,307.136 399.304,308.636 400.5,310C 399.209,312.09 399.876,313.424 402.5,314C 400.381,314.342 400.047,315.175 401.5,316.5C 399.665,315.878 398.498,314.544 398,312.5C 396.972,308.527 396.139,304.527 395.5,300.5 Z"/></g>
<g><path style="opacity:0.62" fill="#c1bcb8" d="M 124.5,306.5 C 125.738,308.214 126.405,310.214 126.5,312.5C 124.926,310.898 124.259,308.898 124.5,306.5 Z"/></g>
<g><path style="opacity:0.996" fill="#625c58" d="M 356.5,316.5 C 353.478,316.196 350.478,315.696 347.5,315C 348.833,314.667 350.167,314.333 351.5,314C 352.252,313.329 352.586,312.496 352.5,311.5C 353.038,308.347 354.038,305.347 355.5,302.5C 356.348,306.302 357.015,310.135 357.5,314C 357.472,315.07 357.139,315.903 356.5,316.5 Z"/></g>
<g><path style="opacity:0.006" fill="#fefffe" d="M 444.5,312.5 C 444.369,311.761 444.536,311.094 445,310.5C 445.692,311.437 445.525,312.103 444.5,312.5 Z"/></g>
<g><path style="opacity:1" fill="#463d38" d="M 214.5,313.5 C 214.611,314.117 214.944,314.617 215.5,315C 211.973,315.808 208.64,315.641 205.5,314.5C 206.833,313.167 206.833,311.833 205.5,310.5C 204.766,309.292 204.433,307.959 204.5,306.5C 204.721,305.265 205.388,304.265 206.5,303.5C 206.062,302.494 205.396,302.494 204.5,303.5C 201.563,300.036 201.897,297.036 205.5,294.5C 206.912,297.892 207.912,301.392 208.5,305C 208.167,305.333 207.833,305.667 207.5,306C 208.035,308.109 209.035,308.609 210.5,307.5C 211.016,310.185 212.35,312.185 214.5,313.5 Z"/></g>
<g><path style="opacity:0.004" fill="#fefffe" d="M 384.5,311.5 C 385.833,312.167 385.833,312.167 384.5,311.5 Z"/></g>
<g><path style="opacity:0.533" fill="#c0bbb9" d="M 205.5,310.5 C 206.833,311.833 206.833,313.167 205.5,314.5C 205.167,314.5 204.833,314.5 204.5,314.5C 205.234,313.292 205.567,311.959 205.5,310.5 Z"/></g>
<g><path style="opacity:0.749" fill="#a7a19b" d="M 436.5,311.5 C 436.715,313.179 436.048,314.179 434.5,314.5C 434.932,313.29 435.599,312.29 436.5,311.5 Z"/></g>
<g><path style="opacity:0.804" fill="#83807b" d="M 104.5,313.5 C 106.195,314.011 107.861,314.678 109.5,315.5C 109.167,316.5 108.5,317.167 107.5,317.5C 102.65,316.781 97.65,316.781 92.5,317.5C 91.5,317.167 90.8333,316.5 90.5,315.5C 91.6888,314.571 93.0222,314.238 94.5,314.5C 95.964,315.16 97.6307,315.493 99.5,315.5C 101.64,315.444 103.306,314.777 104.5,313.5 Z"/></g>
<g><path style="opacity:0.855" fill="#94908b" d="M 128.5,317.5 C 128.611,316.883 128.944,316.383 129.5,316C 127.574,315.578 126.574,314.411 126.5,312.5C 127.458,312.953 128.292,313.619 129,314.5C 130,313.5 131,312.5 132,311.5C 132.692,312.025 133.192,312.692 133.5,313.5C 132.395,315.611 130.729,316.945 128.5,317.5 Z"/></g>
<g><path style="opacity:0.761" fill="#7f7b77" d="M 182.5,300.5 C 182.409,302.698 183.075,303.031 184.5,301.5C 183.308,304.408 182.308,307.408 181.5,310.5C 181.608,311.442 181.941,312.275 182.5,313C 184.221,313.739 185.887,314.573 187.5,315.5C 187.333,315.833 187.167,316.167 187,316.5C 183.029,316.99 179.029,317.323 175,317.5C 173.041,315.057 173.708,313.39 177,312.5C 179.146,308.525 180.98,304.525 182.5,300.5 Z"/></g>
<g><path style="opacity:0.769" fill="#78726e" d="M 214.5,313.5 C 217.924,313.698 218.758,315.032 217,317.5C 212,316.167 207,316.167 202,317.5C 201.517,316.552 201.351,315.552 201.5,314.5C 202.5,314.5 203.5,314.5 204.5,314.5C 204.833,314.5 205.167,314.5 205.5,314.5C 208.64,315.641 211.973,315.808 215.5,315C 214.944,314.617 214.611,314.117 214.5,313.5 Z"/></g>
<g><path style="opacity:0.922" fill="#76716d" d="M 251.5,304.5 C 252.21,306.893 252.877,309.393 253.5,312C 253.167,312.333 252.833,312.667 252.5,313C 253.416,313.278 254.082,313.778 254.5,314.5C 251.535,316.942 248.035,317.942 244,317.5C 239.918,317.909 236.251,316.909 233,314.5C 232.617,315.056 232.117,315.389 231.5,315.5C 232.5,314.167 233.5,312.833 234.5,311.5C 237.835,314.777 241.835,315.943 246.5,315C 250.692,312.78 252.359,309.28 251.5,304.5 Z"/></g>
<g><path style="opacity:0.792" fill="#78726d" d="M 293.5,310.5 C 294.955,313.273 297.288,314.94 300.5,315.5C 293.5,316.833 286.5,316.833 279.5,315.5C 281.924,314.648 284.258,313.648 286.5,312.5C 286.423,313.75 285.756,314.583 284.5,315C 288.167,315.667 291.833,315.667 295.5,315C 293.893,313.951 293.227,312.451 293.5,310.5 Z"/></g>
<g><path style="opacity:0.81" fill="#817c79" d="M 333.5,311.5 C 335.508,313.927 338.174,314.927 341.5,314.5C 345.54,314.575 349.207,313.575 352.5,311.5C 352.586,312.496 352.252,313.329 351.5,314C 350.167,314.333 348.833,314.667 347.5,315C 350.478,315.696 353.478,316.196 356.5,316.5C 347.49,316.339 338.323,316.673 329,317.5C 326.459,316.993 323.959,316.326 321.5,315.5C 323.319,314.68 324.986,313.68 326.5,312.5C 326.5,313.5 326.5,314.5 326.5,315.5C 328.527,315.662 330.527,315.495 332.5,315C 333.337,313.989 333.67,312.822 333.5,311.5 Z"/></g>
<g><path style="opacity:0.761" fill="#87827f" d="M 375.5,312.5 C 375.586,313.496 375.252,314.329 374.5,315C 377.833,315.667 381.167,315.667 384.5,315C 383.944,314.617 383.611,314.117 383.5,313.5C 385.312,313.771 386.978,314.438 388.5,315.5C 388.167,316.5 387.5,317.167 386.5,317.5C 381.267,317.117 376.1,317.117 371,317.5C 370.517,316.552 370.351,315.552 370.5,314.5C 372.514,314.608 374.18,313.942 375.5,312.5 Z"/></g>
<g><path style="opacity:0.918" fill="#95908c" d="M 404.5,309.5 C 405.167,310.5 405.833,311.5 406.5,312.5C 406.5,313.167 406.833,313.5 407.5,313.5C 407.833,314.833 408.167,314.833 408.5,313.5C 410.041,311.206 411.375,311.206 412.5,313.5C 411.139,315.028 409.972,316.695 409,318.5C 408.601,318.272 408.435,317.938 408.5,317.5C 407.793,315.866 406.627,314.532 405,313.5C 404.51,312.207 404.343,310.873 404.5,309.5 Z"/></g>
<g><path style="opacity:0.004" fill="#fefffe" d="M 406.5,312.5 C 407.623,311.243 408.289,311.576 408.5,313.5C 408.167,313.5 407.833,313.5 407.5,313.5C 406.833,313.5 406.5,313.167 406.5,312.5 Z"/></g>
<g><path style="opacity:0.239" fill="#c3bfb9" d="M 433.5,314.5 C 432.833,315.167 432.167,315.833 431.5,316.5C 430.957,316.44 430.624,316.107 430.5,315.5C 431.325,314.614 432.325,314.281 433.5,314.5 Z"/></g>
<g><path style="opacity:0.306" fill="#beb7b2" d="M 120.5,315.5 C 122.027,315.427 123.027,316.094 123.5,317.5C 121.973,317.573 120.973,316.906 120.5,315.5 Z"/></g>
<g><path style="opacity:0.102" fill="#e1d8d6" d="M 229.5,308.5 C 229.336,311.187 229.503,313.854 230,316.5C 230.383,315.944 230.883,315.611 231.5,315.5C 231.179,317.048 230.179,317.715 228.5,317.5C 228.19,314.287 228.523,311.287 229.5,308.5 Z"/></g>
</svg>
