<?xml version="1.0" encoding="UTF-8"?>
<svg version="1.1" xmlns="http://www.w3.org/2000/svg" width="128" height="128">
<path d="M0 0 C1.28170197 0.91550141 2.53475746 1.87295791 3.75 2.875 C4.3790625 3.2978125 5.008125 3.720625 5.65625 4.15625 C11.93675812 8.73356948 15.33389932 16.33209637 16.75 23.875 C18.02274353 41.49760279 11.8632388 58.50757762 1.75 72.875 C1.09 72.875 0.43 72.875 -0.25 72.875 C-0.435625 73.555625 -0.62125 74.23625 -0.8125 74.9375 C-5.34249612 84.19444858 -15.87564499 90.40615022 -25.25 93.875 C-25.25 94.205 -25.25 94.535 -25.25 94.875 C-31.19 94.875 -37.13 94.875 -43.25 94.875 C-43.25 94.215 -43.25 93.555 -43.25 92.875 C-43.930625 92.648125 -44.61125 92.42125 -45.3125 92.1875 C-55.27339861 87.73688573 -59.51523558 80.54295807 -63.40112305 70.63745117 C-64.80969956 66.05360208 -64.88794487 61.64046272 -64.8125 56.875 C-64.80299316 55.90240234 -64.79348633 54.92980469 -64.78369141 53.92773438 C-64.60931279 47.94846299 -64.03360885 43.33147254 -60.73046875 38.21484375 C-58.86123173 35.2605615 -57.7151824 32.18946425 -56.4375 28.9375 C-50.64976379 15.31929716 -41.77701413 4.92559715 -28.08984375 -1.015625 C-19.43393925 -3.51641531 -8.19916403 -4.31017698 0 0 Z M-28.25 4.875 C-28.25 5.865 -28.25 6.855 -28.25 7.875 C-29.24 7.875 -30.23 7.875 -31.25 7.875 C-31.25 8.535 -31.25 9.195 -31.25 9.875 C-32.24 10.205 -33.23 10.535 -34.25 10.875 C-33.92 11.865 -33.59 12.855 -33.25 13.875 C-33.91 13.875 -34.57 13.875 -35.25 13.875 C-35.25 15.195 -35.25 16.515 -35.25 17.875 C-36.24 17.875 -37.23 17.875 -38.25 17.875 C-38.25 18.535 -38.25 19.195 -38.25 19.875 C-39.24 19.875 -40.23 19.875 -41.25 19.875 C-41.25 18.885 -41.25 17.895 -41.25 16.875 C-40.59 16.875 -39.93 16.875 -39.25 16.875 C-39.58 15.555 -39.91 14.235 -40.25 12.875 C-41.9 15.185 -43.55 17.495 -45.25 19.875 C-43.93 20.205 -42.61 20.535 -41.25 20.875 C-41.25 21.865 -41.25 22.855 -41.25 23.875 C-42.24 23.875 -43.23 23.875 -44.25 23.875 C-44.25 24.865 -44.25 25.855 -44.25 26.875 C-45.24 27.205 -46.23 27.535 -47.25 27.875 C-46.92 28.865 -46.59 29.855 -46.25 30.875 C-46.91 31.205 -47.57 31.535 -48.25 31.875 C-48.91 32.865 -49.57 33.855 -50.25 34.875 C-52.375 35.5625 -52.375 35.5625 -54.25 35.875 C-54.58 37.195 -54.91 38.515 -55.25 39.875 C-54.59 39.875 -53.93 39.875 -53.25 39.875 C-53.58 42.185 -53.91 44.495 -54.25 46.875 C-56.23 47.37 -56.23 47.37 -58.25 47.875 C-57.26 47.875 -56.27 47.875 -55.25 47.875 C-55.29125 48.720625 -55.3325 49.56625 -55.375 50.4375 C-55.16519609 56.20710759 -53.10320242 61.44776433 -51.25 66.875 C-49.765 66.38 -49.765 66.38 -48.25 65.875 C-47.775625 64.72 -47.30125 63.565 -46.8125 62.375 C-45.25 58.875 -45.25 58.875 -43.25 57.875 C-41.25 57.875 -41.25 57.875 -38.25 58.875 C-37.92 57.225 -37.59 55.575 -37.25 53.875 C-40.97965139 51.84064469 -42.91905042 50.875 -47.25 50.875 C-47.25 49.885 -47.25 48.895 -47.25 47.875 C-45.765 47.38 -45.765 47.38 -44.25 46.875 C-44.58 46.215 -44.91 45.555 -45.25 44.875 C-44.59 44.875 -43.93 44.875 -43.25 44.875 C-43.58 43.225 -43.91 41.575 -44.25 39.875 C-42.93 40.205 -41.61 40.535 -40.25 40.875 C-40.25 40.215 -40.25 39.555 -40.25 38.875 C-37.94 39.535 -35.63 40.195 -33.25 40.875 C-33.58 39.885 -33.91 38.895 -34.25 37.875 C-36.23 37.545 -38.21 37.215 -40.25 36.875 C-39.92 35.555 -39.59 34.235 -39.25 32.875 C-38.26 32.875 -37.27 32.875 -36.25 32.875 C-36.25 31.555 -36.25 30.235 -36.25 28.875 C-34.6 28.545 -32.95 28.215 -31.25 27.875 C-31.25 27.215 -31.25 26.555 -31.25 25.875 C-29.6 26.205 -27.95 26.535 -26.25 26.875 C-26.91 26.545 -27.57 26.215 -28.25 25.875 C-28.875 23.3125 -28.875 23.3125 -29.25 20.875 C-28.26 20.545 -27.27 20.215 -26.25 19.875 C-26.58 19.215 -26.91 18.555 -27.25 17.875 C-25.6 17.875 -23.95 17.875 -22.25 17.875 C-22.91 17.545 -23.57 17.215 -24.25 16.875 C-24.25 16.215 -24.25 15.555 -24.25 14.875 C-23.26 14.545 -22.27 14.215 -21.25 13.875 C-21.745 12.39 -21.745 12.39 -22.25 10.875 C-20.93 11.205 -19.61 11.535 -18.25 11.875 C-18.25 10.885 -18.25 9.895 -18.25 8.875 C-19.57 8.545 -20.89 8.215 -22.25 7.875 C-22.25 6.885 -22.25 5.895 -22.25 4.875 C-19.775 5.37 -19.775 5.37 -17.25 5.875 C-17.25 5.215 -17.25 4.555 -17.25 3.875 C-16.26 3.875 -15.27 3.875 -14.25 3.875 C-13.755 6.35 -13.755 6.35 -13.25 8.875 C-12.92 8.215 -12.59 7.555 -12.25 6.875 C-11.26 7.205 -10.27 7.535 -9.25 7.875 C-5.16405167 9.0615126 -1.48657606 9.02365179 2.75 8.875 C-1.17699938 4.45395877 -6.81979561 2.40184274 -12.58984375 1.515625 C-18.22254458 1.31763903 -23.05250642 2.81074723 -28.25 4.875 Z M-4.25 11.875 C-4.25 14.515 -4.25 17.155 -4.25 19.875 C-3.26 19.545 -2.27 19.215 -1.25 18.875 C-0.24521963 17.0227633 -0.24521963 17.0227633 -0.25 14.875 C-1.54209912 13.08247941 -1.54209912 13.08247941 -3.25 11.875 C-3.58 11.875 -3.91 11.875 -4.25 11.875 Z M-11.25 12.875 C-10.25 15.875 -10.25 15.875 -10.25 15.875 Z M-12.25 19.875 C-12.58 20.535 -12.91 21.195 -13.25 21.875 C-12.59 21.875 -11.93 21.875 -11.25 21.875 C-11.58 21.215 -11.91 20.555 -12.25 19.875 Z M-47.25 21.875 C-47.58 22.535 -47.91 23.195 -48.25 23.875 C-47.59 23.875 -46.93 23.875 -46.25 23.875 C-46.58 23.215 -46.91 22.555 -47.25 21.875 Z M-5.25 22.875 C-6.29449911 26.00849732 -6.18423645 26.86468256 -5.25 29.875 C-3.27463255 29.52713292 -3.27463255 29.52713292 -1.25 28.875 C-0.92 28.215 -0.59 27.555 -0.25 26.875 C0.41 26.545 1.07 26.215 1.75 25.875 C2.08 25.215 2.41 24.555 2.75 23.875 C0.04120665 22.52060332 -2.25933268 22.80998549 -5.25 22.875 Z M-49.25 24.875 C-49.25 25.865 -49.25 26.855 -49.25 27.875 C-48.59 27.215 -47.93 26.555 -47.25 25.875 C-47.91 25.545 -48.57 25.215 -49.25 24.875 Z M-15.25 24.875 C-15.58 26.195 -15.91 27.515 -16.25 28.875 C-15.26 28.545 -14.27 28.215 -13.25 27.875 C-12.92 26.885 -12.59 25.895 -12.25 24.875 C-13.24 24.875 -14.23 24.875 -15.25 24.875 Z M10.75 28.875 C11.75 30.875 11.75 30.875 11.75 30.875 Z M-9.25 29.875 C-8.26 30.205 -7.27 30.535 -6.25 30.875 C-6.58 32.525 -6.91 34.175 -7.25 35.875 C-6.59 35.875 -5.93 35.875 -5.25 35.875 C-5.25 35.215 -5.25 34.555 -5.25 33.875 C-4.26 33.545 -3.27 33.215 -2.25 32.875 C-3.24 32.875 -4.23 32.875 -5.25 32.875 C-5.25 31.885 -5.25 30.895 -5.25 29.875 C-6.57 29.875 -7.89 29.875 -9.25 29.875 Z M-18.25 31.875 C-18.91 33.195 -19.57 34.515 -20.25 35.875 C-19.59 35.875 -18.93 35.875 -18.25 35.875 C-17.59 34.555 -16.93 33.235 -16.25 31.875 C-16.91 31.875 -17.57 31.875 -18.25 31.875 Z M-12.25 34.875 C-11.25 36.875 -11.25 36.875 -11.25 36.875 Z M8.75 35.875 C9.75 37.875 9.75 37.875 9.75 37.875 Z M-23.25 37.875 C-23.58 38.865 -23.91 39.855 -24.25 40.875 C-23.26 40.545 -22.27 40.215 -21.25 39.875 C-21.91 39.215 -22.57 38.555 -23.25 37.875 Z M-7.25 42.875 C-7.25 43.865 -7.25 44.855 -7.25 45.875 C-6.26 45.545 -5.27 45.215 -4.25 44.875 C-3.92 44.215 -3.59 43.555 -3.25 42.875 C-4.57 42.875 -5.89 42.875 -7.25 42.875 Z M5.75 43.875 C6.75 47.875 6.75 47.875 6.75 47.875 Z M-32.25 44.875 C-31.25 47.875 -31.25 47.875 -31.25 47.875 Z M-18.25 45.875 C-18.58 46.865 -18.91 47.855 -19.25 48.875 C-16.28 49.37 -16.28 49.37 -13.25 49.875 C-13.25 50.865 -13.25 51.855 -13.25 52.875 C-12.26 53.205 -11.27 53.535 -10.25 53.875 C-10.12625 53.235625 -10.0025 52.59625 -9.875 51.9375 C-9.66875 51.256875 -9.4625 50.57625 -9.25 49.875 C-8.59 49.545 -7.93 49.215 -7.25 48.875 C-12.72774766 47.29178933 -12.72774766 47.29178933 -18.25 45.875 Z M-21.25 50.875 C-21.25 51.865 -21.25 52.855 -21.25 53.875 C-18.94 54.205 -16.63 54.535 -14.25 54.875 C-14.25 54.215 -14.25 53.555 -14.25 52.875 C-16.56 52.215 -18.87 51.555 -21.25 50.875 Z M-60.25 51.875 C-60.34688221 57.32193314 -60.37862175 62.51404667 -59.25 67.875 C-58.26 67.215 -57.27 66.555 -56.25 65.875 C-56.91 65.875 -57.57 65.875 -58.25 65.875 C-58.22679687 65.11574219 -58.20359375 64.35648438 -58.1796875 63.57421875 C-58.16164063 62.58035156 -58.14359375 61.58648437 -58.125 60.5625 C-58.10179687 59.57636719 -58.07859375 58.59023438 -58.0546875 57.57421875 C-58.04317361 54.65093473 -58.04317361 54.65093473 -60.25 51.875 Z M4.75 51.875 C5.75 53.875 5.75 53.875 5.75 53.875 Z M-29.25 55.875 C-29.91 59.175 -30.57 62.475 -31.25 65.875 C-27.85077072 63.14605698 -27.85077072 63.14605698 -28.0625 59.1875 C-28.124375 58.094375 -28.18625 57.00125 -28.25 55.875 C-28.58 55.875 -28.91 55.875 -29.25 55.875 Z M-18.25 55.875 C-18.25 56.535 -18.25 57.195 -18.25 57.875 C-19.24 58.37 -19.24 58.37 -20.25 58.875 C-18.826875 59.5865625 -18.826875 59.5865625 -17.375 60.3125 C-14.8125 61.59375 -14.8125 61.59375 -12.25 62.875 C-12.25 62.215 -12.25 61.555 -12.25 60.875 C-11.59 60.545 -10.93 60.215 -10.25 59.875 C-12.89738916 58.4143715 -14.14448334 57.875 -17.25 57.875 C-17.58 57.215 -17.91 56.555 -18.25 55.875 Z M3.75 55.875 C4.75 57.875 4.75 57.875 4.75 57.875 Z M-26.25 65.875 C-25.92 66.535 -25.59 67.195 -25.25 67.875 C-24.92 67.215 -24.59 66.555 -24.25 65.875 C-24.91 65.875 -25.57 65.875 -26.25 65.875 Z M-27.25 67.875 C-27.58 68.535 -27.91 69.195 -28.25 69.875 C-27.59 69.875 -26.93 69.875 -26.25 69.875 C-26.58 69.215 -26.91 68.555 -27.25 67.875 Z M-23.25 67.875 C-23.25 68.535 -23.25 69.195 -23.25 69.875 C-20.28 70.865 -17.31 71.855 -14.25 72.875 C-13.59 72.215 -12.93 71.555 -12.25 70.875 C-13.51839526 70.36884702 -14.78983102 69.87030901 -16.0625 69.375 C-16.77019531 69.0965625 -17.47789063 68.818125 -18.20703125 68.53125 C-20.36841216 67.7220838 -20.36841216 67.7220838 -23.25 67.875 Z M-48.25 69.875 C-48.25 71.525 -48.25 73.175 -48.25 74.875 C-47.92 73.885 -47.59 72.895 -47.25 71.875 C-46.59 71.545 -45.93 71.215 -45.25 70.875 C-46.24 70.545 -47.23 70.215 -48.25 69.875 Z M-29.25 69.875 C-29.91 71.195 -30.57 72.515 -31.25 73.875 C-30.26 73.875 -29.27 73.875 -28.25 73.875 C-28.58 72.555 -28.91 71.235 -29.25 69.875 Z M-27.25 73.875 C-26.25 75.875 -26.25 75.875 -26.25 75.875 Z M-46.25 74.875 C-46.25 76.855 -46.25 78.835 -46.25 80.875 C-45.59 80.875 -44.93 80.875 -44.25 80.875 C-43.92 78.895 -43.59 76.915 -43.25 74.875 C-44.24 74.875 -45.23 74.875 -46.25 74.875 Z M-32.25 74.875 C-32.91 77.185 -33.57 79.495 -34.25 81.875 C-33.26 81.215 -32.27 80.555 -31.25 79.875 C-30.99969023 77.29119823 -30.99969023 77.29119823 -31.25 74.875 C-31.58 74.875 -31.91 74.875 -32.25 74.875 Z M-44.25 80.875 C-43.25 82.875 -43.25 82.875 -43.25 82.875 Z M-49.25 83.875 C-48.92 84.535 -48.59 85.195 -48.25 85.875 C-47.59 85.545 -46.93 85.215 -46.25 84.875 C-47.24 84.545 -48.23 84.215 -49.25 83.875 Z M-40.375 87.875 C-40.99375 88.535 -41.6125 89.195 -42.25 89.875 C-35.22217958 90.9140717 -35.22217958 90.9140717 -28.25 89.875 C-28.25 89.545 -28.25 89.215 -28.25 88.875 C-30.89 88.875 -33.53 88.875 -36.25 88.875 C-36.25 87.885 -36.25 86.895 -36.25 85.875 C-38.49362573 85.6465451 -38.49362573 85.6465451 -40.375 87.875 Z M-45.25 86.875 C-44.59 87.535 -43.93 88.195 -43.25 88.875 C-43.25 88.215 -43.25 87.555 -43.25 86.875 C-43.91 86.875 -44.57 86.875 -45.25 86.875 Z " transform="translate(64.25,5.125)"/>
<path d="M0 0 C2.01953125 2.62890625 2.01953125 2.62890625 3.8125 5.5625 C4.41707031 6.53316406 5.02164063 7.50382812 5.64453125 8.50390625 C7 11 7 11 7 13 C7.66 13 8.32 13 9 13 C13.17280417 25.5184125 8.63029885 42.00975699 3.11035156 53.55639648 C1.48943561 56.75630815 -0.22803811 59.88049823 -2 63 C-2.49113281 63.86882812 -2.98226562 64.73765625 -3.48828125 65.6328125 C-5.60249965 69.18051024 -7.80461535 72.35554374 -11 75 C-11.66 75 -12.32 75 -13 75 C-13 75.66 -13 76.32 -13 77 C-21.0998053 82.45397711 -27.29290576 83.83335944 -37 83 C-37 82.34 -37 81.68 -37 81 C-37.78375 80.731875 -38.5675 80.46375 -39.375 80.1875 C-42 79 -42 79 -44 76 C-44.2475 75.0925 -44.495 74.185 -44.75 73.25 C-45.98386298 70.04195626 -46.75654212 69.15450171 -49.125 66.875 C-52.65735921 62.90869002 -52.79434165 59.48275439 -52.5234375 54.296875 C-51.76032385 49.49039801 -50.20105989 45.17418018 -48.421875 40.65625 C-47.19438592 37.49984952 -46.1550159 34.36708203 -45.16625977 31.13378906 C-43.0394834 24.27788079 -40.42814701 18.67877431 -36 13 C-35.12652039 11.81720584 -34.25422653 10.63353554 -33.3828125 9.44921875 C-32.4238751 8.17297389 -31.46292596 6.89823819 -30.5 5.625 C-30.04931152 5.01712646 -29.59862305 4.40925293 -29.13427734 3.78295898 C-25.62210021 -0.74383302 -22.13766841 -2.89757596 -16.6875 -4.8125 C-10.61527379 -5.23614369 -4.92443432 -3.54653219 0 0 Z M-17 0 C-17 0.99 -17 1.98 -17 3 C-17.99 2.67 -18.98 2.34 -20 2 C-20.66 2.66 -21.32 3.32 -22 4 C-21.38125 4.12375 -20.7625 4.2475 -20.125 4.375 C-18 5 -18 5 -16 7 C-16 6.01 -16 5.02 -16 4 C-11.25 2.875 -11.25 2.875 -9 4 C-8.67 4.99 -8.34 5.98 -8 7 C-6.68 6.67 -5.36 6.34 -4 6 C-8.48309249 1.41228083 -8.48309249 1.41228083 -14.4375 -0.375 C-15.283125 -0.25125 -16.12875 -0.1275 -17 0 Z M-25 6 C-26.54166642 7.37485532 -26.54166642 7.37485532 -28 9 C-28 9.66 -28 10.32 -28 11 C-27.34 11 -26.68 11 -26 11 C-26 10.34 -26 9.68 -26 9 C-25.34 9 -24.68 9 -24 9 C-24.33 8.01 -24.66 7.02 -25 6 Z M-29 11 C-29.33 11.66 -29.66 12.32 -30 13 C-29.34 13 -28.68 13 -28 13 C-28.33 12.34 -28.66 11.68 -29 11 Z M-19 11 C-18 13 -18 13 -18 13 Z M-8 11 C-7 14 -7 14 -7 14 Z M-31 13 C-30 15 -30 15 -30 15 Z M-11 13 C-10 15 -10 15 -10 15 Z M-32 15 C-33.32 16.65 -34.64 18.3 -36 20 C-35.67 20.66 -35.34 21.32 -35 22 C-33.35 20.35 -31.7 18.7 -30 17 C-30.66 16.34 -31.32 15.68 -32 15 Z M-7 16 C-7.33 16.99 -7.66 17.98 -8 19 C-7.01 19 -6.02 19 -5 19 C-5 18.34 -5 17.68 -5 17 C-4.34 16.67 -3.68 16.34 -3 16 C-4.32 16 -5.64 16 -7 16 Z M-14 19 C-14.33 20.65 -14.66 22.3 -15 24 C-13.68 22.68 -12.36 21.36 -11 20 C-11.99 19.67 -12.98 19.34 -14 19 Z M-11 20 C-10.01 21.485 -10.01 21.485 -9 23 C-8.34 23 -7.68 23 -7 23 C-7.33 22.01 -7.66 21.02 -8 20 C-8.99 20 -9.98 20 -11 20 Z M-33 21 C-32 23 -32 23 -32 23 Z M-37 22 C-37 22.66 -37 23.32 -37 24 C-36.34 23.67 -35.68 23.34 -35 23 C-35.66 22.67 -36.32 22.34 -37 22 Z M-38 24 C-38 24.66 -38 25.32 -38 26 C-37.34 25.67 -36.68 25.34 -36 25 C-36.66 24.67 -37.32 24.34 -38 24 Z M4 25 C5 27 5 27 5 27 Z M-17 26 C-17.33 27.98 -17.66 29.96 -18 32 C-17.34 32 -16.68 32 -16 32 C-16 31.01 -16 30.02 -16 29 C-14.02 29 -12.04 29 -10 29 C-12.35953094 26.64046906 -13.77895617 26.50858587 -17 26 Z M-39 27 C-39.33 27.99 -39.66 28.98 -40 30 C-38.35 30 -36.7 30 -35 30 C-35.99 29.67 -36.98 29.34 -38 29 C-38.33 28.34 -38.66 27.68 -39 27 Z M-26 28 C-25 30 -25 30 -25 30 Z M3 29 C3 30.65 3 32.3 3 34 C3.33 34 3.66 34 4 34 C4 32.35 4 30.7 4 29 C3.67 29 3.34 29 3 29 Z M-19 32 C-18 34 -18 34 -18 34 Z M-13 32 C-13 32.66 -13 33.32 -13 34 C-12.34 34 -11.68 34 -11 34 C-11 33.34 -11 32.68 -11 32 C-11.66 32 -12.32 32 -13 32 Z M-20 35 C-19 37 -19 37 -19 37 Z M2 35 C3 37 3 37 3 37 Z M-42 36 C-43.32 40.29 -44.64 44.58 -46 49 C-45.34 49 -44.68 49 -44 49 C-44 48.01 -44 47.02 -44 46 C-43.01 45.67 -42.02 45.34 -41 45 C-41.33 43.68 -41.66 42.36 -42 41 C-39 42 -39 42 -38 44 C-37.34 44 -36.68 44 -36 44 C-35.34 45.32 -34.68 46.64 -34 48 C-33.67 47.01 -33.34 46.02 -33 45 C-34.09108647 42.90365808 -34.09108647 42.90365808 -35.75 40.875 C-36.54664062 39.81925781 -36.54664062 39.81925781 -37.359375 38.7421875 C-38.98294589 36.74243273 -38.98294589 36.74243273 -42 36 Z M-14 36 C-13.34 37.98 -12.68 39.96 -12 42 C-11.34 42 -10.68 42 -10 42 C-8.36323743 40.0399719 -8.36323743 40.0399719 -7 38 C-9.31 37.34 -11.62 36.68 -14 36 Z M-17 41 C-16.67 42.32 -16.34 43.64 -16 45 C-15.34 44.67 -14.68 44.34 -14 44 C-14.99 43.01 -15.98 42.02 -17 41 Z M-18 44 C-17 47 -17 47 -17 47 Z M-2 46 C-1 48 -1 48 -1 48 Z M-36 48 C-35 50 -35 50 -35 50 Z M-25 48 C-25 48.66 -25 49.32 -25 50 C-24.34 49.67 -23.68 49.34 -23 49 C-23.66 48.67 -24.32 48.34 -25 48 Z M-23 50 C-22.34 51.98 -21.68 53.96 -21 56 C-20.01 55.34 -19.02 54.68 -18 54 C-18.66 54 -19.32 54 -20 54 C-20 52.68 -20 51.36 -20 50 C-20.99 50 -21.98 50 -23 50 Z M-27 51 C-27.33 51.66 -27.66 52.32 -28 53 C-27.34 53 -26.68 53 -26 53 C-26.33 52.34 -26.66 51.68 -27 51 Z M-5 52 C-4 54 -4 54 -4 54 Z M-30 54 C-29.67 54.66 -29.34 55.32 -29 56 C-28.67 55.34 -28.34 54.68 -28 54 C-28.66 54 -29.32 54 -30 54 Z M-6 54 C-6 57 -6 57 -6 57 Z M-26 58 C-26 58.66 -26 59.32 -26 60 C-26.99 60 -27.98 60 -29 60 C-29.33 61.65 -29.66 63.3 -30 65 C-27.525 65.495 -27.525 65.495 -25 66 C-25 65.34 -25 64.68 -25 64 C-21.73539027 65.80412643 -20.11070205 66.83394693 -18 70 C-17.01 68.68 -16.02 67.36 -15 66 C-15.99 65.67 -16.98 65.34 -18 65 C-19.04892238 63.36368108 -20.04906703 61.69514137 -21 60 C-21.66 59.34 -22.32 58.68 -23 58 C-23.99 58 -24.98 58 -26 58 Z M-36 69 C-35 71 -35 71 -35 71 Z M-39 72 C-39 73.32 -39 74.64 -39 76 C-38.34 75.01 -37.68 74.02 -37 73 C-37.66 72.67 -38.32 72.34 -39 72 Z M-36 77 C-36 77.33 -36 77.66 -36 78 C-34.02 78 -32.04 78 -30 78 C-30 77.67 -30 77.34 -30 77 C-31.98 77 -33.96 77 -36 77 Z " transform="translate(118,39)"/>
<path d="M0 0 C0.33 0.99 0.66 1.98 1 3 C-0.32 3.33 -1.64 3.66 -3 4 C-3 3.01 -3 2.02 -3 1 C-2.01 0.67 -1.02 0.34 0 0 Z "  transform="translate(34,23)"/>
<path d="M0 0 C0.99 0 1.98 0 3 0 C3 0.66 3 1.32 3 2 C2.01 1.67 1.02 1.34 0 1 C0 0.67 0 0.34 0 0 Z" transform="translate(125,13)"/>
</svg>
